<?xml version="1.0" encoding="UTF-8" standalone="no"?>
<!-- Created with Inkscape (http://www.inkscape.org/) -->

<svg
   width="512"
   height="512"
   viewBox="0 0 512 512"
   version="1.1"
   id="svg1"
   style="stroke:#000000"
   xmlns="http://www.w3.org/2000/svg"
   xmlns:svg="http://www.w3.org/2000/svg">
  <defs
     id="defs1">
    <filter
       style="color-interpolation-filters:sRGB"
       id="filter7"
       x="-0.147"
       y="-0.147"
       width="1.294"
       height="1.294">
      <feGaussianBlur
         stdDeviation="31.36"
         id="feGaussianBlur7" />
    </filter>
    <filter
       style="color-interpolation-filters:sRGB"
       id="filter8"
       x="-0.011697915"
       y="-0.012309965"
       width="1.0233958"
       height="1.0246199">
      <feGaussianBlur
         stdDeviation="1.409004"
         id="feGaussianBlur8" />
    </filter>
    <filter
       style="color-interpolation-filters:sRGB"
       id="filter9"
       x="-0.013412988"
       y="-0.010825656"
       width="1.026826"
       height="1.0216513">
      <feGaussianBlur
         stdDeviation="1.3823848"
         id="feGaussianBlur9" />
    </filter>
  </defs>
  <g
     id="layer1">
    <g
       id="g9">
      <g
         id="g2"
         transform="translate(-0.46330758,15.495809)"
         style="stroke:none;stroke-opacity:1">
        <rect
           style="mix-blend-mode:normal;fill:#a93da9;fill-opacity:1;stroke:none;stroke-width:10;stroke-linecap:round;stroke-linejoin:round;stroke-dasharray:none;stroke-opacity:1;filter:url(#filter7)"
           id="rect5"
           width="512"
           height="512"
           x="0.46330759"
           y="-15.495809"
           rx="75"
           ry="75"
           transform="matrix(0.85208172,0,0,0.84000676,42.935611,39.479044)" />
      </g>
      <g
         id="g3"
         transform="matrix(0.80832099,0,0,0.82471033,48.695325,57.653709)"
         style="stroke:#ffffff;stroke-opacity:1">
        <path
           d="m 278.59946,36.780843 q -3.46292,3.462922 -6.92584,6.925844 -3.46293,3.21557 -5.44174,8.162601 -2.96822,0.494703 -6.18379,1.236758 -3.21557,0.742055 -6.18379,0.742055 -1.97881,0 -3.95762,-0.494704 -1.97881,-0.742054 -3.95763,-0.742054 -1.73146,0 -1.73146,1.731461 0,1.731461 -0.9894,2.720867 -1.97881,-0.742055 -4.20498,-0.989406 -2.22616,-0.247352 -4.45233,-0.247352 -5.19438,0 -10.38876,1.731461 -4.94703,1.484109 -9.89406,3.710273 -4.94704,1.978813 -9.89407,4.204977 -4.94703,2.226164 -10.14141,3.462922 0.24735,0.247351 0.24735,1.236757 0,1.731461 -0.98941,2.968219 -0.9894,0.989406 -0.9894,2.720867 v 0.742055 q 2.96822,6.43114 5.93644,12.367578 2.96821,5.936437 5.68908,12.367578 1.48411,3.21557 2.47352,6.18379 0.9894,2.96822 2.22616,6.43114 0.4947,1.97881 1.73146,2.72087 1.23676,0.4947 2.47352,1.73146 -0.49471,1.48411 -0.49471,2.72086 0,4.69968 2.22617,9.15201 2.22616,4.20498 2.22616,8.65731 0,1.23675 -0.4947,3.21557 2.96822,4.20497 4.20498,9.64671 1.23675,5.44173 2.22616,11.13082 0.98941,5.44173 1.97881,10.88347 1.23676,5.19438 4.20498,9.39935 -1.73146,2.96822 -2.22617,6.43115 -0.4947,3.21557 -0.4947,6.67849 0,7.91525 1.48411,16.07785 1.73146,7.91525 1.73146,15.8305 0,5.44173 -1.23676,8.90465 0.49471,3.71028 2.47352,5.44174 -0.98941,1.73146 -0.74205,4.20498 0.24735,2.22616 -0.98941,3.95762 1.23676,4.94703 1.23676,9.15201 0,6.18379 -1.73146,12.36758 -1.48411,5.93643 -1.48411,12.36757 0,1.73146 0.24735,3.21557 0.24735,1.73146 0.9894,3.71028 -0.4947,1.48411 -1.97881,1.73146 -1.23676,0.4947 -1.73146,1.73146 v 0.74205 q 0,3.71028 -0.98941,6.43114 -0.74205,2.96822 -1.97881,5.44174 l -2.22616,5.19438 q -0.98941,2.72087 -1.73146,5.93644 -6.43114,3.46292 -12.36758,6.67849 -5.68909,3.21557 -11.13082,8.6573 -0.98941,0.24736 -2.96822,0.24736 -1.73146,0 -3.46292,-0.24736 -1.73146,0 -3.71027,0 -2.72087,0 -5.68909,0.74206 -3.95763,-3.71027 -9.64671,-5.44173 -5.68909,-1.48411 -10.63612,-4.20498 -1.73146,-2.22617 -3.95762,-3.95763 l -4.45233,-3.46292 q -2.22616,-1.73146 -4.20498,-3.46292 -1.97881,-1.73146 -3.46292,-4.45233 h -3.46292 q 0,-0.24735 0,-0.4947 0.24735,-0.24735 0.24735,-0.4947 0,-1.23676 -1.23676,-1.48411 -1.23675,-0.24736 -0.74205,-1.73146 -2.96822,-2.22617 -4.94703,-5.19439 -1.97882,-2.96822 -3.95763,-6.18379 -1.97881,-2.96821 -3.95762,-5.93643 -1.97882,-2.72087 -4.94703,-4.94703 v -0.49471 q 0,-1.23676 -0.74206,-1.48411 -0.74205,-0.4947 -0.24735,-2.47351 -3.95763,-5.19439 -6.67849,-10.88347 -2.72087,-5.68909 -5.19438,-11.62552 -2.22617,-6.18379 -4.69968,-12.12023 -2.226169,-5.93644 -5.441739,-11.37817 -0.494703,-2.47352 -0.494703,-4.94703 v -4.94703 q 0,-7.1732 1.236758,-13.60434 1.236758,-6.67849 4.699684,-12.86228 1.97881,-0.4947 4.45232,-0.24735 2.72087,0 4.94703,0 2.22617,0 4.20498,-0.24735 2.22617,-0.49471 3.95763,-2.22617 -0.24736,0.98941 0.4947,1.48411 0.74205,0.24735 1.48411,0.24735 1.23676,0 2.22616,-0.24735 1.23676,-0.4947 2.47352,-0.4947 0.4947,0 1.23676,0.24735 0.9894,0.24735 0.9894,1.48411 1.48411,-0.4947 2.72087,-1.23676 1.23676,-0.74205 2.72087,-1.48411 4.20497,3.71028 9.89406,5.68909 5.68908,1.73146 11.62552,3.46292 5.93644,1.48411 11.62553,3.46292 5.68908,1.73146 10.14141,5.19438 1.23676,2.47352 1.23676,5.19439 0,4.20497 -3.46293,7.42054 -3.46292,2.96822 -7.42054,4.20498 -5.68909,-3.95763 -12.86228,-5.68909 -6.92585,-1.73146 -13.10964,-4.94703 -4.94703,1.97882 -10.88346,2.22617 -5.68909,0 -11.13082,0.4947 -1.23676,0.98941 -0.98941,3.46292 0.4947,2.47352 -0.74205,3.71028 3.21557,9.64671 8.40995,18.79871 5.19438,8.90466 9.39936,18.30402 0.4947,1.48411 1.73146,2.22616 1.23676,0.49471 2.47351,1.23676 v 0.74206 q 0,1.4841 0.74206,2.22616 0.74205,0.4947 0.24735,2.47351 2.96822,0.49471 4.20498,3.21558 1.48411,2.72086 2.96822,4.69967 0.9894,1.23676 1.97881,2.22617 1.23676,0.9894 2.22616,2.22616 4.20498,4.69968 9.15201,9.89406 4.94703,5.19439 10.38876,7.91525 0.74206,0.49471 1.23676,0.49471 0.74206,0 1.48411,0.24735 2.72087,1.48411 5.93644,2.72087 3.21557,1.48411 6.67849,1.48411 1.73146,0 3.46292,-0.74206 1.97882,-0.74205 2.47352,-2.47351 1.23676,-2.22617 1.73146,-5.19439 0.74205,-2.72086 1.23676,-5.19438 1.97881,-7.17319 3.71027,-14.34639 1.97881,-7.1732 3.21557,-14.34639 -0.4947,-3.21557 -0.74205,-6.43114 -0.24736,-3.21557 -0.24736,-6.43114 0,-5.68909 0.24736,-11.37817 0.4947,-5.68909 0.4947,-11.37817 0,-5.19439 -0.74206,-10.14142 -0.4947,-5.19438 -2.47351,-10.14141 0.4947,-0.98941 1.23676,-1.48411 0.74205,-0.4947 0.74205,-1.73146 0,-1.48411 -0.9894,-3.95763 -0.74206,-2.72086 -1.97882,-3.46292 1.73146,-2.47351 1.73146,-6.18379 0,-4.20497 -1.23675,-8.40995 -1.23676,-4.20498 -1.23676,-8.40995 0,-2.72087 0.74205,-5.44174 0,-1.73146 -1.73146,-1.73146 -1.73146,0 -1.97881,-1.73146 0,-0.4947 0,-0.98941 0.24735,-0.4947 0.24735,-0.9894 0,-3.21557 -0.98941,-5.93644 -0.74205,-2.96822 -0.9894,-6.18379 -2.22617,-2.47351 -3.21557,-6.18379 -0.98941,-3.71027 -1.97881,-7.42054 -0.98941,-3.95763 -2.22617,-7.42055 -1.23676,-3.46292 -3.95762,-5.68909 0,-3.21557 -0.98941,-6.67849 -0.74205,-3.46292 -4.20498,-4.94703 -1.48411,-5.68909 -3.95762,-10.63612 -2.47352,-4.94703 -6.67849,-8.904653 0,-5.936438 -2.47352,-9.152008 -2.22616,-3.21557 -5.68908,-7.420546 -5.68909,0.494703 -11.37818,2.226164 -5.68908,1.73146 -11.37817,1.73146 -1.48411,0 -2.96822,0 -1.23675,-0.247351 -2.72086,-0.494703 -1.23676,0.742055 -1.48411,2.473516 -0.24735,1.484109 -0.24735,2.720867 -4.45233,0.494703 -8.65731,1.731461 -4.20498,0.989406 -8.6573,2.226164 -4.20498,0.989406 -8.40996,1.731461 -4.204973,0.742055 -8.657301,0.494703 -1.73146,3.462922 -4.947031,4.69968 -3.21557,0.989404 -6.925843,1.484104 -3.462922,0.49471 -6.925844,1.23676 -3.462922,0.74206 -5.441734,3.21557 -0.989406,-0.9894 -2.473516,-0.9894 -1.978812,0 -3.710273,0.9894 -1.978813,0.98941 -4.204977,0.98941 -1.73146,0 -2.720867,-0.98941 -1.731461,1.23676 -3.710273,1.97882 -2.226164,0.4947 -3.462922,2.47351 -4.204976,-0.74205 -7.420547,-3.21557 -3.21557,-2.47351 -5.194382,-5.93644 -2.226164,-3.462918 -3.21557,-7.420543 -0.989407,-4.204977 -0.989407,-8.162602 1.48411,-2.720867 4.69968,-3.710273 3.21557,-0.989406 5.194383,-3.462922 1.73146,0.742055 3.462921,1.484109 1.48411,0.494704 3.462922,0.494704 2.473516,0 4.204977,-0.989407 1.731461,-0.989406 3.710273,-0.989406 1.236758,0 2.720867,0.742055 1.731461,-1.48411 4.204977,-1.731461 2.473515,-0.494703 4.699679,-0.742055 2.473516,-0.494703 4.452328,-1.236758 1.978813,-0.742054 2.720867,-3.21557 2.226164,0.742055 4.69968,0.742055 2.968219,0 5.936437,-0.742055 2.968219,-0.989406 5.441735,-1.978812 2.473515,-0.989407 4.452328,-1.731461 1.978812,-0.989406 2.720867,-0.989406 1.236757,0 2.473516,0.742054 1.23676,0.494703 2.47351,0.494703 2.47352,0 4.69968,-1.484109 2.47352,-1.484109 4.45233,-2.968219 1.97881,0.989407 3.71028,0.989407 3.46292,0 6.92584,-1.978813 3.71027,-1.978812 7.91525,-1.978812 1.73146,0 2.72087,0.247351 5.68908,-2.720867 13.60433,-4.947031 8.1626,-2.226164 14.59374,-2.226164 3.46293,-2.968219 8.16261,-4.204976 4.69967,-1.236758 9.64671,-1.978813 4.94703,-0.742055 9.64671,-1.978812 4.94703,-1.236758 8.90465,-4.204977 1.23676,0.494703 2.96822,0.742055 1.73146,0 2.47352,0.989406 1.23675,-0.494703 1.73146,-1.731461 0.4947,-1.236758 0.74205,-2.473515 0.24735,-0.247352 0.98941,-0.247352 1.23676,0 0.98941,0.989406 -0.24736,0.989407 0.9894,0.989407 0.74206,0 2.47352,-0.742055 1.97881,-0.989406 4.69968,-1.978813 2.72086,-0.989406 5.93643,-1.731461 3.21557,-0.989406 6.18379,-0.989406 h 0.98941 l 1.23676,-0.247351 q 1.23675,-0.494703 2.72086,-0.742055 1.48411,-0.494703 2.72087,-0.989406 1.48411,-0.494703 1.97881,-0.494703 5.44174,-1.731461 11.13082,-2.968219 5.93644,-1.236758 11.62553,-1.236758 5.44173,0 10.14141,1.978813 4.69968,1.731461 7.91525,6.43114 z"
           id="text4"
           transform="scale(1.026199,0.97446988)"
           aria-label="J"
           style="fill:#ffffff;fill-opacity:1;stroke:none;stroke-opacity:1;filter:url(#filter9)" />
        <path
           d="m 487.10959,285.59679 q -0.40487,2.42923 -1.41705,5.46576 -0.80974,3.03654 -2.42922,5.6682 -1.41705,2.42923 -3.64384,4.25115 -2.2268,1.61948 -5.26333,1.61948 -2.22679,0 -4.45358,-0.40487 -2.22679,-0.60731 -4.65602,-0.60731 -1.01218,0 -2.22679,0.80975 -1.01218,0.6073 -2.02436,0.6073 -1.01217,0 -1.82192,-0.20243 -0.6073,-0.40487 -1.61948,-0.40487 -0.60731,0 -2.22679,0.40487 -1.61949,0.40487 -3.44141,0.80974 -1.82192,0.40487 -3.4414,1.01218 -1.61948,0.40487 -2.22679,0.6073 -5.46576,1.82192 -10.93152,3.23897 -5.46576,1.41705 -11.33639,1.82192 -1.21461,-0.40487 -3.64384,-0.80974 -2.42923,-0.60731 -3.64384,-0.60731 -2.42923,0 -3.23897,2.02436 -0.60731,2.02435 -2.63166,3.03653 -2.42923,1.41705 -6.07307,1.61949 -3.64384,0.20243 -7.28768,0.6073 -3.64384,0.40487 -6.88281,1.61949 -3.03653,1.01218 -4.45358,4.04871 -1.01218,-0.20244 -2.22679,-0.20244 -1.01218,-0.20243 -2.22679,-0.20243 -6.47794,0 -12.14614,2.63166 -5.66819,2.42923 -11.53882,4.45358 1.01218,1.82192 1.41705,4.45358 0.40487,2.63167 0.80974,5.26333 0.40487,2.42923 1.01218,4.85845 0.80974,2.22679 2.63166,3.44141 0,1.21461 -0.60731,2.02435 -0.40487,0.80974 -1.01218,1.41705 l -1.41704,1.41705 q -0.60731,0.60731 -0.80975,1.82192 -0.6073,2.42923 -0.6073,5.06089 0,2.42923 -2.8341,3.64384 0.20243,0.60731 0.20243,2.22679 0,2.02436 -0.6073,3.84628 -0.60731,1.82192 -0.40487,4.04871 -3.44141,3.84627 -5.87063,7.89498 -2.2268,4.04871 -3.44141,8.70473 -7.49011,7.49012 -15.3851,14.98023 -7.69255,7.69255 -15.99241,14.7778 -8.09742,7.08524 -16.80215,13.36074 -8.70473,6.47794 -18.01676,11.3364 h -1.41705 q -4.65602,0 -7.28768,1.61948 -2.63167,1.61948 -6.68038,2.8341 -3.03653,-0.80974 -7.28768,-0.80974 -2.42922,0 -5.06089,0.20243 -2.42922,0.20244 -5.06088,0.20244 -3.44141,0 -6.27551,-0.80975 -2.63166,-0.80974 -5.26332,-1.82192 -2.42923,-1.01217 -5.06089,-2.02435 -2.63166,-1.01218 -5.66819,-1.41705 -12.55101,-12.551 -19.83869,-29.35316 -7.28768,-16.59971 -7.28768,-34.2116 0,-8.09743 2.22679,-15.78998 2.22679,-7.89498 2.22679,-15.78997 3.64384,-7.28768 6.27551,-14.98023 2.83409,-7.69255 5.66819,-15.3851 2.8341,-7.69255 6.07307,-14.98023 3.4414,-7.49012 8.09742,-14.17049 1.01218,-5.26333 3.23897,-9.1096 2.22679,-3.84628 4.85845,-8.5023 0,-4.45358 1.82192,-8.09742 2.02436,-3.84627 2.42923,-8.50229 3.23897,-3.03653 5.26332,-6.88281 2.02436,-3.84628 3.84628,-7.89499 1.82192,-4.04871 4.04871,-7.69255 2.42923,-3.84627 6.47794,-6.47794 0.40487,-1.41704 0.40487,-3.03653 0.20243,-1.82192 1.01218,-2.8341 L 266.2524,212.72 q 2.02436,-2.63167 3.64384,-5.26333 1.82192,-2.8341 3.84628,-5.06089 1.21461,-1.21461 2.63166,-2.02435 1.41705,-0.80975 2.42923,-1.82192 1.01217,-1.01218 0.6073,-2.63167 -0.20243,-1.61948 0.80975,-2.63166 0.40487,-0.40487 1.21461,-0.80974 0.80974,-0.40487 1.41705,-0.80974 2.63166,-1.82192 4.45358,-3.64384 1.82192,-1.82192 5.06089,-2.63166 2.8341,-2.22679 5.06089,-4.45359 2.42922,-2.22679 4.85845,-4.04871 2.42923,-1.82192 5.26333,-2.83409 2.83409,-1.21462 7.08524,-1.21462 0.80974,0 1.61948,0.20244 0.80975,0 1.61949,0 8.29986,7.69255 10.32421,18.8265 -2.22679,2.8341 -3.64384,6.07307 -1.21461,3.23897 -2.8341,6.47794 -3.4414,1.21461 -6.47793,3.64384 -3.03654,2.22679 -6.07307,4.65602 -2.8341,2.42922 -6.07307,4.25114 -3.03653,1.82192 -6.88281,1.82192 -1.61948,1.41705 -5.26332,4.65602 -3.4414,3.03653 -7.28768,6.47794 -3.64384,3.4414 -6.88281,6.47794 -3.03653,3.03653 -3.84627,4.25114 -0.60731,1.01218 -1.01218,1.82192 -0.40487,0.80974 -0.80974,1.82192 l -5.26333,8.90717 q -4.45358,7.69255 -9.1096,15.18266 -4.65602,7.28768 -8.09742,15.3851 -1.61948,3.64384 -2.63166,7.28768 -1.01218,3.64384 -2.02436,7.69256 -0.40487,1.21461 -1.01218,2.42922 -0.6073,1.21462 -1.01217,2.22679 -2.22679,4.25115 -3.64384,7.89499 -1.41705,3.64384 -1.61949,8.50229 -5.06089,11.33639 -9.51447,22.87522 -4.25115,11.33639 -6.47794,23.48253 1.21462,4.04871 1.01218,8.29985 0,4.04871 0,8.09742 0,5.06089 0.60731,8.29986 0.80974,3.44141 2.02435,6.07307 1.41705,2.8341 3.03654,5.66819 1.61948,3.03654 3.4414,7.08525 3.03653,2.42923 5.46576,5.06089 2.42923,2.8341 4.65602,6.07306 7.69255,3.84628 15.58754,3.84628 5.66819,0 11.53882,-1.82192 5.87063,-1.82192 11.33639,-4.65602 5.6682,-2.63166 10.93152,-5.87063 5.26333,-3.23897 10.12178,-6.2755 8.50229,-5.06089 14.7778,-10.93152 6.2755,-5.87063 11.33639,-12.34857 5.26332,-6.47794 9.7169,-13.76562 4.45359,-7.49011 9.31204,-15.78997 0.20243,-1.01218 0.80974,-2.42923 l 1.21461,-3.03653 q 0.60731,-1.61948 1.01218,-2.8341 0.60731,-1.41705 0.60731,-1.82192 0,-1.61948 -0.80974,-2.22679 -0.60731,-0.80974 -0.60731,-1.61948 0,-1.61949 0.80974,-2.22679 0.80974,-0.60731 1.82192,-1.21462 1.21462,-0.6073 2.02436,-1.41705 1.01218,-0.80974 1.01218,-3.03653 -0.40488,-0.20244 -1.41705,-0.20244 -1.01218,0 -2.02436,0.20244 -1.01218,0.20244 -2.02435,0.20244 -2.42923,0 -4.04872,-1.61949 -1.01217,0.40487 -2.02435,1.41705 -1.01218,0.80974 -2.02436,1.82192 -0.80974,1.01218 -1.61948,1.82192 -0.80974,0.80974 -1.41705,0.80974 -1.01218,0 -1.61948,-0.40487 -0.40487,-0.40487 -1.21462,-0.40487 -3.4414,0 -6.07306,1.61948 -2.63167,1.61949 -5.6682,2.63167 -0.60731,0 -1.21461,0 -0.60731,-0.20244 -1.21462,-0.20244 -2.22679,0 -4.45358,0.80974 -2.02435,0.60731 -4.04871,1.41705 -1.82192,0.80974 -3.84627,1.41705 -2.02436,0.60731 -4.04872,0.40487 -4.45358,1.61949 -8.29985,3.44141 -3.64384,1.82192 -8.5023,1.41705 -1.41705,0.6073 -3.03653,1.41704 -1.41705,0.60731 -2.8341,1.61949 -1.21461,0.40487 -1.82192,0.40487 -1.01218,0 -1.61948,-1.01218 -1.61949,1.82192 -4.25115,2.63166 -2.63166,0.60731 -5.46576,1.21462 -2.8341,0.40487 -5.46576,1.21461 -2.42923,0.60731 -3.84627,2.63166 -2.2268,-1.82192 -5.26333,-1.82192 -3.03653,0 -5.87063,1.21462 -2.8341,1.01217 -6.07307,1.01217 -1.21461,0 -1.61948,-0.40487 -0.80974,-2.22679 -1.82192,-4.45358 -1.01218,-2.22679 -3.23897,-3.23897 -0.40487,-2.22679 -0.80974,-4.25114 -0.20244,-2.2268 -0.20244,-4.25115 0,-5.46576 3.23897,-9.91934 2.8341,-1.01218 5.6682,-1.61949 3.03653,-0.80974 5.87063,-1.82192 2.22679,0.40487 4.45358,0.60731 2.22679,0.20243 4.45358,0.20243 8.29986,0 16.19485,-2.02435 7.89498,-2.22679 15.58753,-4.65602 7.28768,-2.22679 14.7778,-4.04871 7.49012,-1.82192 14.98023,-4.04871 7.08525,-1.82192 13.96805,-4.04871 6.88281,-2.42923 14.37293,-3.03654 4.85845,-3.4414 11.74126,-4.65601 7.08524,-1.21462 12.95588,-2.63167 9.31203,-2.22679 18.42163,-4.45358 9.1096,-2.42922 18.62407,-4.25114 10.52665,-2.2268 20.44599,-5.46576 10.12178,-3.23897 20.24356,-6.88281 h 2.02435 q 3.44141,0 7.08525,-0.80974 3.64384,-0.80975 7.28768,-0.80975 1.01218,0 1.61948,0.20244 0.80974,0 1.61949,0 0.6073,0 3.03653,-0.80974 2.42923,-1.01218 3.4414,-1.41705 2.63167,2.8341 5.87064,5.06089 3.23896,2.22679 5.66819,5.06088 z"
           id="text5"
           transform="scale(0.98717015,1.0129966)"
           aria-label="G"
           style="fill:#ffffff;fill-opacity:1;stroke:none;stroke-opacity:1;filter:url(#filter8)" />
      </g>
    </g>
  </g>
</svg>
